<svg width="1293" height="394" xmlns="http://www.w3.org/2000/svg" xmlns:xlink="http://www.w3.org/1999/xlink" overflow="hidden"><defs><clipPath id="clip0"><rect x="870" y="1338" width="1293" height="394"/></clipPath><linearGradient x1="139.084" y1="-5.15625" x2="139.084" y2="74.2217" gradientUnits="userSpaceOnUse" spreadMethod="reflect" id="fill1"><stop offset="0" stop-color="#F49818" stop-opacity="1"/><stop offset="0.00884956" stop-color="#F39719" stop-opacity="1"/><stop offset="0.0176991" stop-color="#F3971B" stop-opacity="1"/><stop offset="0.0265487" stop-color="#F3971D" stop-opacity="1"/><stop offset="0.0353982" stop-color="#F3971F" stop-opacity="1"/><stop offset="0.0442478" stop-color="#F39721" stop-opacity="1"/><stop offset="0.0530973" stop-color="#F39723" stop-opacity="1"/><stop offset="0.0619469" stop-color="#F39724" stop-opacity="1"/><stop offset="0.0707965" stop-color="#F39726" stop-opacity="1"/><stop offset="0.079646" stop-color="#F39728" stop-opacity="1"/><stop offset="0.0884956" stop-color="#F3962A" stop-opacity="1"/><stop offset="0.0973451" stop-color="#F3962B" stop-opacity="1"/><stop offset="0.106195" stop-color="#F3962D" stop-opacity="1"/><stop offset="0.115044" stop-color="#F3962F" stop-opacity="1"/><stop offset="0.123894" stop-color="#F39531" stop-opacity="1"/><stop offset="0.132743" stop-color="#F39532" stop-opacity="1"/><stop offset="0.141593" stop-color="#F39534" stop-opacity="1"/><stop offset="0.150442" stop-color="#F39436" stop-opacity="1"/><stop offset="0.159292" stop-color="#F39437" stop-opacity="1"/><stop offset="0.168142" stop-color="#F39439" stop-opacity="1"/><stop offset="0.176991" stop-color="#F3933A" stop-opacity="1"/><stop offset="0.185841" stop-color="#F3933C" stop-opacity="1"/><stop offset="0.19469" stop-color="#F3933E" stop-opacity="1"/><stop offset="0.20354" stop-color="#F3923F" stop-opacity="1"/><stop offset="0.212389" stop-color="#F39241" stop-opacity="1"/><stop offset="0.221239" stop-color="#F29142" stop-opacity="1"/><stop offset="0.230089" stop-color="#F29144" stop-opacity="1"/><stop offset="0.238938" stop-color="#F29045" stop-opacity="1"/><stop offset="0.247788" stop-color="#F29047" stop-opacity="1"/><stop offset="0.256637" stop-color="#F28F48" stop-opacity="1"/><stop offset="0.265487" stop-color="#F28F4A" stop-opacity="1"/><stop offset="0.274336" stop-color="#F28E4B" stop-opacity="1"/><stop offset="0.283186" stop-color="#F28E4C" stop-opacity="1"/><stop offset="0.292035" stop-color="#F28D4E" stop-opacity="1"/><stop offset="0.300885" stop-color="#F28C4F" stop-opacity="1"/><stop offset="0.309735" stop-color="#F28C51" stop-opacity="1"/><stop offset="0.318584" stop-color="#F18B52" stop-opacity="1"/><stop offset="0.327434" stop-color="#F18B53" stop-opacity="1"/><stop offset="0.336283" stop-color="#F18A55" stop-opacity="1"/><stop offset="0.345133" stop-color="#F18956" stop-opacity="1"/><stop offset="0.353982" stop-color="#F18957" stop-opacity="1"/><stop offset="0.362832" stop-color="#F18859" stop-opacity="1"/><stop offset="0.371681" stop-color="#F1875A" stop-opacity="1"/><stop offset="0.380531" stop-color="#F1865B" stop-opacity="1"/><stop offset="0.389381" stop-color="#F0865C" stop-opacity="1"/><stop offset="0.39823" stop-color="#F0855E" stop-opacity="1"/><stop offset="0.40708" stop-color="#F0845F" stop-opacity="1"/><stop offset="0.415929" stop-color="#F08360" stop-opacity="1"/><stop offset="0.424779" stop-color="#F08261" stop-opacity="1"/><stop offset="0.433628" stop-color="#F08262" stop-opacity="1"/><stop offset="0.442478" stop-color="#F08163" stop-opacity="1"/><stop offset="0.451327" stop-color="#EF8065" stop-opacity="1"/><stop offset="0.460177" stop-color="#EF7F66" stop-opacity="1"/><stop offset="0.469027" stop-color="#EF7E67" stop-opacity="1"/><stop offset="0.477876" stop-color="#EF7D68" stop-opacity="1"/><stop offset="0.486726" stop-color="#EF7C69" stop-opacity="1"/><stop offset="0.495575" stop-color="#EF7B6A" stop-opacity="1"/><stop offset="0.504425" stop-color="#EF7A6B" stop-opacity="1"/><stop offset="0.513274" stop-color="#EE796C" stop-opacity="1"/><stop offset="0.522124" stop-color="#EE786D" stop-opacity="1"/><stop offset="0.530973" stop-color="#EE776E" stop-opacity="1"/><stop offset="0.539823" stop-color="#EE766F" stop-opacity="1"/><stop offset="0.548673" stop-color="#EE7570" stop-opacity="1"/><stop offset="0.557522" stop-color="#ED7471" stop-opacity="1"/><stop offset="0.566372" stop-color="#ED7372" stop-opacity="1"/><stop offset="0.575221" stop-color="#ED7273" stop-opacity="1"/><stop offset="0.584071" stop-color="#ED7173" stop-opacity="1"/><stop offset="0.59292" stop-color="#ED7074" stop-opacity="1"/><stop offset="0.60177" stop-color="#ED6F75" stop-opacity="1"/><stop offset="0.610619" stop-color="#EC6E76" stop-opacity="1"/><stop offset="0.619469" stop-color="#EC6D77" stop-opacity="1"/><stop offset="0.628319" stop-color="#EC6C78" stop-opacity="1"/><stop offset="0.637168" stop-color="#EC6A78" stop-opacity="1"/><stop offset="0.646018" stop-color="#EC6979" stop-opacity="1"/><stop offset="0.654867" stop-color="#EB687A" stop-opacity="1"/><stop offset="0.663717" stop-color="#EB677B" stop-opacity="1"/><stop offset="0.672566" stop-color="#EB667B" stop-opacity="1"/><stop offset="0.681416" stop-color="#EB647C" stop-opacity="1"/><stop offset="0.690265" stop-color="#EB637D" stop-opacity="1"/><stop offset="0.699115" stop-color="#EA627E" stop-opacity="1"/><stop offset="0.707965" stop-color="#EA617E" stop-opacity="1"/><stop offset="0.716814" stop-color="#EA5F7F" stop-opacity="1"/><stop offset="0.725664" stop-color="#EA5E7F" stop-opacity="1"/><stop offset="0.734513" stop-color="#E95D80" stop-opacity="1"/><stop offset="0.743363" stop-color="#E95B81" stop-opacity="1"/><stop offset="0.752212" stop-color="#E95A81" stop-opacity="1"/><stop offset="0.761062" stop-color="#E95982" stop-opacity="1"/><stop offset="0.769912" stop-color="#E85782" stop-opacity="1"/><stop offset="0.778761" stop-color="#E85683" stop-opacity="1"/><stop offset="0.787611" stop-color="#E85483" stop-opacity="1"/><stop offset="0.79646" stop-color="#E85384" stop-opacity="1"/><stop offset="0.80531" stop-color="#E85284" stop-opacity="1"/><stop offset="0.814159" stop-color="#E75085" stop-opacity="1"/><stop offset="0.823009" stop-color="#E74F85" stop-opacity="1"/><stop offset="0.831858" stop-color="#E74D85" stop-opacity="1"/><stop offset="0.840708" stop-color="#E64C86" stop-opacity="1"/><stop offset="0.849558" stop-color="#E64A86" stop-opacity="1"/><stop offset="0.858407" stop-color="#E64987" stop-opacity="1"/><stop offset="0.867257" stop-color="#E64787" stop-opacity="1"/><stop offset="0.876106" stop-color="#E54687" stop-opacity="1"/><stop offset="0.884956" stop-color="#E54488" stop-opacity="1"/><stop offset="0.893805" stop-color="#E54288" stop-opacity="1"/><stop offset="0.902655" stop-color="#E54188" stop-opacity="1"/><stop offset="0.911504" stop-color="#E43F88" stop-opacity="1"/><stop offset="0.920354" stop-color="#E43E89" stop-opacity="1"/><stop offset="0.929204" stop-color="#E43C89" stop-opacity="1"/><stop offset="0.938053" stop-color="#E43A89" stop-opacity="1"/><stop offset="0.946903" stop-color="#E33989" stop-opacity="1"/><stop offset="0.955752" stop-color="#E33789" stop-opacity="1"/><stop offset="0.964602" stop-color="#E33589" stop-opacity="1"/><stop offset="0.973451" stop-color="#E23489" stop-opacity="1"/><stop offset="0.982301" stop-color="#E23289" stop-opacity="1"/><stop offset="0.99115" stop-color="#E23089" stop-opacity="1"/><stop offset="1" stop-color="#E22F8A" stop-opacity="1"/></linearGradient><linearGradient x1="134.746" y1="-5.15625" x2="134.746" y2="131.317" gradientUnits="userSpaceOnUse" spreadMethod="reflect" id="fill2"><stop offset="0" stop-color="#F49818" stop-opacity="1"/><stop offset="0.00884956" stop-color="#F39719" stop-opacity="1"/><stop offset="0.0176991" stop-color="#F3971B" stop-opacity="1"/><stop offset="0.0265487" stop-color="#F3971D" stop-opacity="1"/><stop offset="0.0353982" stop-color="#F3971F" stop-opacity="1"/><stop offset="0.0442478" stop-color="#F39721" stop-opacity="1"/><stop offset="0.0530973" stop-color="#F39723" stop-opacity="1"/><stop offset="0.0619469" stop-color="#F39724" stop-opacity="1"/><stop offset="0.0707965" stop-color="#F39726" stop-opacity="1"/><stop offset="0.079646" stop-color="#F39728" stop-opacity="1"/><stop offset="0.0884956" stop-color="#F3962A" stop-opacity="1"/><stop offset="0.0973451" stop-color="#F3962B" stop-opacity="1"/><stop offset="0.106195" stop-color="#F3962D" stop-opacity="1"/><stop offset="0.115044" stop-color="#F3962F" stop-opacity="1"/><stop offset="0.123894" stop-color="#F39531" stop-opacity="1"/><stop offset="0.132743" stop-color="#F39532" stop-opacity="1"/><stop offset="0.141593" stop-color="#F39534" stop-opacity="1"/><stop offset="0.150442" stop-color="#F39436" stop-opacity="1"/><stop offset="0.159292" stop-color="#F39437" stop-opacity="1"/><stop offset="0.168142" stop-color="#F39439" stop-opacity="1"/><stop offset="0.176991" stop-color="#F3933A" stop-opacity="1"/><stop offset="0.185841" stop-color="#F3933C" stop-opacity="1"/><stop offset="0.19469" stop-color="#F3933E" stop-opacity="1"/><stop offset="0.20354" stop-color="#F3923F" stop-opacity="1"/><stop offset="0.212389" stop-color="#F39241" stop-opacity="1"/><stop offset="0.221239" stop-color="#F29142" stop-opacity="1"/><stop offset="0.230089" stop-color="#F29144" stop-opacity="1"/><stop offset="0.238938" stop-color="#F29045" stop-opacity="1"/><stop offset="0.247788" stop-color="#F29047" stop-opacity="1"/><stop offset="0.256637" stop-color="#F28F48" stop-opacity="1"/><stop offset="0.265487" stop-color="#F28F4A" stop-opacity="1"/><stop offset="0.274336" stop-color="#F28E4B" stop-opacity="1"/><stop offset="0.283186" stop-color="#F28E4C" stop-opacity="1"/><stop offset="0.292035" stop-color="#F28D4E" stop-opacity="1"/><stop offset="0.300885" stop-color="#F28C4F" stop-opacity="1"/><stop offset="0.309735" stop-color="#F28C51" stop-opacity="1"/><stop offset="0.318584" stop-color="#F18B52" stop-opacity="1"/><stop offset="0.327434" stop-color="#F18B53" stop-opacity="1"/><stop offset="0.336283" stop-color="#F18A55" stop-opacity="1"/><stop offset="0.345133" stop-color="#F18956" stop-opacity="1"/><stop offset="0.353982" stop-color="#F18957" stop-opacity="1"/><stop offset="0.362832" stop-color="#F18859" stop-opacity="1"/><stop offset="0.371681" stop-color="#F1875A" stop-opacity="1"/><stop offset="0.380531" stop-color="#F1865B" stop-opacity="1"/><stop offset="0.389381" stop-color="#F0865C" stop-opacity="1"/><stop offset="0.39823" stop-color="#F0855E" stop-opacity="1"/><stop offset="0.40708" stop-color="#F0845F" stop-opacity="1"/><stop offset="0.415929" stop-color="#F08360" stop-opacity="1"/><stop offset="0.424779" stop-color="#F08261" stop-opacity="1"/><stop offset="0.433628" stop-color="#F08262" stop-opacity="1"/><stop offset="0.442478" stop-color="#F08163" stop-opacity="1"/><stop offset="0.451327" stop-color="#EF8065" stop-opacity="1"/><stop offset="0.460177" stop-color="#EF7F66" stop-opacity="1"/><stop offset="0.469027" stop-color="#EF7E67" stop-opacity="1"/><stop offset="0.477876" stop-color="#EF7D68" stop-opacity="1"/><stop offset="0.486726" stop-color="#EF7C69" stop-opacity="1"/><stop offset="0.495575" stop-color="#EF7B6A" stop-opacity="1"/><stop offset="0.504425" stop-color="#EF7A6B" stop-opacity="1"/><stop offset="0.513274" stop-color="#EE796C" stop-opacity="1"/><stop offset="0.522124" stop-color="#EE786D" stop-opacity="1"/><stop offset="0.530973" stop-color="#EE776E" stop-opacity="1"/><stop offset="0.539823" stop-color="#EE766F" stop-opacity="1"/><stop offset="0.548673" stop-color="#EE7570" stop-opacity="1"/><stop offset="0.557522" stop-color="#ED7471" stop-opacity="1"/><stop offset="0.566372" stop-color="#ED7372" stop-opacity="1"/><stop offset="0.575221" stop-color="#ED7273" stop-opacity="1"/><stop offset="0.584071" stop-color="#ED7173" stop-opacity="1"/><stop offset="0.59292" stop-color="#ED7074" stop-opacity="1"/><stop offset="0.60177" stop-color="#ED6F75" stop-opacity="1"/><stop offset="0.610619" stop-color="#EC6E76" stop-opacity="1"/><stop offset="0.619469" stop-color="#EC6D77" stop-opacity="1"/><stop offset="0.628319" stop-color="#EC6C78" stop-opacity="1"/><stop offset="0.637168" stop-color="#EC6A78" stop-opacity="1"/><stop offset="0.646018" stop-color="#EC6979" stop-opacity="1"/><stop offset="0.654867" stop-color="#EB687A" stop-opacity="1"/><stop offset="0.663717" stop-color="#EB677B" stop-opacity="1"/><stop offset="0.672566" stop-color="#EB667B" stop-opacity="1"/><stop offset="0.681416" stop-color="#EB647C" stop-opacity="1"/><stop offset="0.690265" stop-color="#EB637D" stop-opacity="1"/><stop offset="0.699115" stop-color="#EA627E" stop-opacity="1"/><stop offset="0.707965" stop-color="#EA617E" stop-opacity="1"/><stop offset="0.716814" stop-color="#EA5F7F" stop-opacity="1"/><stop offset="0.725664" stop-color="#EA5E7F" stop-opacity="1"/><stop offset="0.734513" stop-color="#E95D80" stop-opacity="1"/><stop offset="0.743363" stop-color="#E95B81" stop-opacity="1"/><stop offset="0.752212" stop-color="#E95A81" stop-opacity="1"/><stop offset="0.761062" stop-color="#E95982" stop-opacity="1"/><stop offset="0.769912" stop-color="#E85782" stop-opacity="1"/><stop offset="0.778761" stop-color="#E85683" stop-opacity="1"/><stop offset="0.787611" stop-color="#E85483" stop-opacity="1"/><stop offset="0.79646" stop-color="#E85384" stop-opacity="1"/><stop offset="0.80531" stop-color="#E85284" stop-opacity="1"/><stop offset="0.814159" stop-color="#E75085" stop-opacity="1"/><stop offset="0.823009" stop-color="#E74F85" stop-opacity="1"/><stop offset="0.831858" stop-color="#E74D85" stop-opacity="1"/><stop offset="0.840708" stop-color="#E64C86" stop-opacity="1"/><stop offset="0.849558" stop-color="#E64A86" stop-opacity="1"/><stop offset="0.858407" stop-color="#E64987" stop-opacity="1"/><stop offset="0.867257" stop-color="#E64787" stop-opacity="1"/><stop offset="0.876106" stop-color="#E54687" stop-opacity="1"/><stop offset="0.884956" stop-color="#E54488" stop-opacity="1"/><stop offset="0.893805" stop-color="#E54288" stop-opacity="1"/><stop offset="0.902655" stop-color="#E54188" stop-opacity="1"/><stop offset="0.911504" stop-color="#E43F88" stop-opacity="1"/><stop offset="0.920354" stop-color="#E43E89" stop-opacity="1"/><stop offset="0.929204" stop-color="#E43C89" stop-opacity="1"/><stop offset="0.938053" stop-color="#E43A89" stop-opacity="1"/><stop offset="0.946903" stop-color="#E33989" stop-opacity="1"/><stop offset="0.955752" stop-color="#E33789" stop-opacity="1"/><stop offset="0.964602" stop-color="#E33589" stop-opacity="1"/><stop offset="0.973451" stop-color="#E23489" stop-opacity="1"/><stop offset="0.982301" stop-color="#E23289" stop-opacity="1"/><stop offset="0.99115" stop-color="#E23089" stop-opacity="1"/><stop offset="1" stop-color="#E22F8A" stop-opacity="1"/></linearGradient><linearGradient x1="63.5447" y1="-5.15625" x2="63.5447" y2="118.118" gradientUnits="userSpaceOnUse" spreadMethod="reflect" id="fill3"><stop offset="0" stop-color="#F49818" stop-opacity="1"/><stop offset="0.00884956" stop-color="#F39719" stop-opacity="1"/><stop offset="0.0176991" stop-color="#F3971B" stop-opacity="1"/><stop offset="0.0265487" stop-color="#F3971D" stop-opacity="1"/><stop offset="0.0353982" stop-color="#F3971F" stop-opacity="1"/><stop offset="0.0442478" stop-color="#F39721" stop-opacity="1"/><stop offset="0.0530973" stop-color="#F39723" stop-opacity="1"/><stop offset="0.0619469" stop-color="#F39724" stop-opacity="1"/><stop offset="0.0707965" stop-color="#F39726" stop-opacity="1"/><stop offset="0.079646" stop-color="#F39728" stop-opacity="1"/><stop offset="0.0884956" stop-color="#F3962A" stop-opacity="1"/><stop offset="0.0973451" stop-color="#F3962B" stop-opacity="1"/><stop offset="0.106195" stop-color="#F3962D" stop-opacity="1"/><stop offset="0.115044" stop-color="#F3962F" stop-opacity="1"/><stop offset="0.123894" stop-color="#F39531" stop-opacity="1"/><stop offset="0.132743" stop-color="#F39532" stop-opacity="1"/><stop offset="0.141593" stop-color="#F39534" stop-opacity="1"/><stop offset="0.150442" stop-color="#F39436" stop-opacity="1"/><stop offset="0.159292" stop-color="#F39437" stop-opacity="1"/><stop offset="0.168142" stop-color="#F39439" stop-opacity="1"/><stop offset="0.176991" stop-color="#F3933A" stop-opacity="1"/><stop offset="0.185841" stop-color="#F3933C" stop-opacity="1"/><stop offset="0.19469" stop-color="#F3933E" stop-opacity="1"/><stop offset="0.20354" stop-color="#F3923F" stop-opacity="1"/><stop offset="0.212389" stop-color="#F39241" stop-opacity="1"/><stop offset="0.221239" stop-color="#F29142" stop-opacity="1"/><stop offset="0.230089" stop-color="#F29144" stop-opacity="1"/><stop offset="0.238938" stop-color="#F29045" stop-opacity="1"/><stop offset="0.247788" stop-color="#F29047" stop-opacity="1"/><stop offset="0.256637" stop-color="#F28F48" stop-opacity="1"/><stop offset="0.265487" stop-color="#F28F4A" stop-opacity="1"/><stop offset="0.274336" stop-color="#F28E4B" stop-opacity="1"/><stop offset="0.283186" stop-color="#F28E4C" stop-opacity="1"/><stop offset="0.292035" stop-color="#F28D4E" stop-opacity="1"/><stop offset="0.300885" stop-color="#F28C4F" stop-opacity="1"/><stop offset="0.309735" stop-color="#F28C51" stop-opacity="1"/><stop offset="0.318584" stop-color="#F18B52" stop-opacity="1"/><stop offset="0.327434" stop-color="#F18B53" stop-opacity="1"/><stop offset="0.336283" stop-color="#F18A55" stop-opacity="1"/><stop offset="0.345133" stop-color="#F18956" stop-opacity="1"/><stop offset="0.353982" stop-color="#F18957" stop-opacity="1"/><stop offset="0.362832" stop-color="#F18859" stop-opacity="1"/><stop offset="0.371681" stop-color="#F1875A" stop-opacity="1"/><stop offset="0.380531" stop-color="#F1865B" stop-opacity="1"/><stop offset="0.389381" stop-color="#F0865C" stop-opacity="1"/><stop offset="0.39823" stop-color="#F0855E" stop-opacity="1"/><stop offset="0.40708" stop-color="#F0845F" stop-opacity="1"/><stop offset="0.415929" stop-color="#F08360" stop-opacity="1"/><stop offset="0.424779" stop-color="#F08261" stop-opacity="1"/><stop offset="0.433628" stop-color="#F08262" stop-opacity="1"/><stop offset="0.442478" stop-color="#F08163" stop-opacity="1"/><stop offset="0.451327" stop-color="#EF8065" stop-opacity="1"/><stop offset="0.460177" stop-color="#EF7F66" stop-opacity="1"/><stop offset="0.469027" stop-color="#EF7E67" stop-opacity="1"/><stop offset="0.477876" stop-color="#EF7D68" stop-opacity="1"/><stop offset="0.486726" stop-color="#EF7C69" stop-opacity="1"/><stop offset="0.495575" stop-color="#EF7B6A" stop-opacity="1"/><stop offset="0.504425" stop-color="#EF7A6B" stop-opacity="1"/><stop offset="0.513274" stop-color="#EE796C" stop-opacity="1"/><stop offset="0.522124" stop-color="#EE786D" stop-opacity="1"/><stop offset="0.530973" stop-color="#EE776E" stop-opacity="1"/><stop offset="0.539823" stop-color="#EE766F" stop-opacity="1"/><stop offset="0.548673" stop-color="#EE7570" stop-opacity="1"/><stop offset="0.557522" stop-color="#ED7471" stop-opacity="1"/><stop offset="0.566372" stop-color="#ED7372" stop-opacity="1"/><stop offset="0.575221" stop-color="#ED7273" stop-opacity="1"/><stop offset="0.584071" stop-color="#ED7173" stop-opacity="1"/><stop offset="0.59292" stop-color="#ED7074" stop-opacity="1"/><stop offset="0.60177" stop-color="#ED6F75" stop-opacity="1"/><stop offset="0.610619" stop-color="#EC6E76" stop-opacity="1"/><stop offset="0.619469" stop-color="#EC6D77" stop-opacity="1"/><stop offset="0.628319" stop-color="#EC6C78" stop-opacity="1"/><stop offset="0.637168" stop-color="#EC6A78" stop-opacity="1"/><stop offset="0.646018" stop-color="#EC6979" stop-opacity="1"/><stop offset="0.654867" stop-color="#EB687A" stop-opacity="1"/><stop offset="0.663717" stop-color="#EB677B" stop-opacity="1"/><stop offset="0.672566" stop-color="#EB667B" stop-opacity="1"/><stop offset="0.681416" stop-color="#EB647C" stop-opacity="1"/><stop offset="0.690265" stop-color="#EB637D" stop-opacity="1"/><stop offset="0.699115" stop-color="#EA627E" stop-opacity="1"/><stop offset="0.707965" stop-color="#EA617E" stop-opacity="1"/><stop offset="0.716814" stop-color="#EA5F7F" stop-opacity="1"/><stop offset="0.725664" stop-color="#EA5E7F" stop-opacity="1"/><stop offset="0.734513" stop-color="#E95D80" stop-opacity="1"/><stop offset="0.743363" stop-color="#E95B81" stop-opacity="1"/><stop offset="0.752212" stop-color="#E95A81" stop-opacity="1"/><stop offset="0.761062" stop-color="#E95982" stop-opacity="1"/><stop offset="0.769912" stop-color="#E85782" stop-opacity="1"/><stop offset="0.778761" stop-color="#E85683" stop-opacity="1"/><stop offset="0.787611" stop-color="#E85483" stop-opacity="1"/><stop offset="0.79646" stop-color="#E85384" stop-opacity="1"/><stop offset="0.80531" stop-color="#E85284" stop-opacity="1"/><stop offset="0.814159" stop-color="#E75085" stop-opacity="1"/><stop offset="0.823009" stop-color="#E74F85" stop-opacity="1"/><stop offset="0.831858" stop-color="#E74D85" stop-opacity="1"/><stop offset="0.840708" stop-color="#E64C86" stop-opacity="1"/><stop offset="0.849558" stop-color="#E64A86" stop-opacity="1"/><stop offset="0.858407" stop-color="#E64987" stop-opacity="1"/><stop offset="0.867257" stop-color="#E64787" stop-opacity="1"/><stop offset="0.876106" stop-color="#E54687" stop-opacity="1"/><stop offset="0.884956" stop-color="#E54488" stop-opacity="1"/><stop offset="0.893805" stop-color="#E54288" stop-opacity="1"/><stop offset="0.902655" stop-color="#E54188" stop-opacity="1"/><stop offset="0.911504" stop-color="#E43F88" stop-opacity="1"/><stop offset="0.920354" stop-color="#E43E89" stop-opacity="1"/><stop offset="0.929204" stop-color="#E43C89" stop-opacity="1"/><stop offset="0.938053" stop-color="#E43A89" stop-opacity="1"/><stop offset="0.946903" stop-color="#E33989" stop-opacity="1"/><stop offset="0.955752" stop-color="#E33789" stop-opacity="1"/><stop offset="0.964602" stop-color="#E33589" stop-opacity="1"/><stop offset="0.973451" stop-color="#E23489" stop-opacity="1"/><stop offset="0.982301" stop-color="#E23289" stop-opacity="1"/><stop offset="0.99115" stop-color="#E23089" stop-opacity="1"/><stop offset="1" stop-color="#E22F8A" stop-opacity="1"/></linearGradient></defs><g clip-path="url(#clip0)" transform="translate(-870 -1338)"><path d="M1.2425-5.00431 21.2597-0.0343063C24.0235 0.651908 25.7078 3.4487 25.0215 6.2125 24.3353 8.97631 21.5385 10.6605 18.7747 9.97431L-1.2425 5.00431C-4.0063 4.31809-5.69052 1.5213-5.00431-1.2425-4.31809-4.0063-1.5213-5.69052 1.2425-5.00431ZM41.277 4.9357 61.2942 9.9057C64.058 10.5919 65.7422 13.3887 65.056 16.1525 64.3698 18.9163 61.573 20.6005 58.8092 19.9143L38.792 14.9443C36.0282 14.2581 34.3439 11.4613 35.0302 8.6975 35.7164 5.9337 38.5132 4.24948 41.277 4.9357ZM81.3114 14.8757 101.329 19.8457C104.092 20.5319 105.777 23.3287 105.09 26.0925 104.404 28.8563 101.607 30.5405 98.8437 29.8543L78.8264 24.8843C76.0626 24.1981 74.3784 21.4013 75.0646 18.6375 75.7508 15.8737 78.5476 14.1895 81.3114 14.8757ZM121.346 24.8157 141.363 29.7857C144.127 30.4719 145.811 33.2687 145.125 36.0325 144.439 38.7963 141.642 40.4805 138.878 39.7943L118.861 34.8243C116.097 34.1381 114.413 31.3413 115.099 28.5775 115.785 25.8137 118.582 24.1295 121.346 24.8157ZM161.38 34.7557 181.398 39.7257C184.161 40.4119 185.846 43.2087 185.159 45.9725 184.473 48.7363 181.676 50.4205 178.913 49.7343L158.895 44.7643C156.132 44.0781 154.447 41.2813 155.134 38.5175 155.82 35.7537 158.617 34.0695 161.38 34.7557ZM201.415 44.6957 221.432 49.6657C224.196 50.3519 225.88 53.1487 225.194 55.9125 224.508 58.6763 221.711 60.3605 218.947 59.6743L198.93 54.7043C196.166 54.0181 194.482 51.2213 195.168 48.4575 195.854 45.6937 198.651 44.0095 201.415 44.6957ZM241.449 54.6357 261.467 59.6057C264.23 60.2919 265.915 63.0887 265.228 65.8525 264.542 68.6163 261.745 70.3006 258.982 69.6143L238.964 64.6443C236.201 63.9581 234.516 61.1613 235.202 58.3975 235.889 55.6337 238.686 53.9495 241.449 54.6357Z" fill="url(#fill1)" fill-rule="nonzero" transform="matrix(1 0 0 -1 904 1560.07)"/><path d="M2.18616-4.66986 20.8656 4.07478C23.4447 5.28216 24.5567 8.3517 23.3493 10.9308 22.1419 13.5099 19.0724 14.6219 16.4933 13.4145L-2.18616 4.66986C-4.76525 3.46248-5.87725 0.392934-4.66986-2.18616-3.46248-4.76525-0.392934-5.87725 2.18616-4.66986ZM39.5451 12.8194 58.2245 21.5641C60.8036 22.7714 61.9156 25.841 60.7082 28.4201 59.5008 30.9992 56.4313 32.1112 53.8522 30.9038L35.1727 22.1591C32.5937 20.9518 31.4817 17.8822 32.689 15.3031 33.8964 12.724 36.966 11.612 39.5451 12.8194ZM76.904 30.3087 95.5834 39.0533C98.1625 40.2607 99.2745 43.3303 98.0671 45.9094 96.8597 48.4884 93.7902 49.6004 91.2111 48.3931L72.5316 39.6484C69.9526 38.441 68.8406 35.3715 70.0479 32.7924 71.2553 30.2133 74.3249 29.1013 76.904 30.3087ZM114.263 47.798 132.942 56.5426C135.521 57.75 136.633 60.8195 135.426 63.3986 134.219 65.9777 131.149 67.0897 128.57 65.8823L109.891 57.1377C107.311 55.9303 106.199 52.8608 107.407 50.2817 108.614 47.7026 111.684 46.5906 114.263 47.798ZM151.622 65.2872 170.301 74.0319C172.88 75.2393 173.992 78.3088 172.785 80.8879 171.578 83.467 168.508 84.579 165.929 83.3716L147.249 74.627C144.67 73.4196 143.558 70.35 144.766 67.7709 145.973 65.1919 149.043 64.0799 151.622 65.2872ZM188.981 82.7765 207.66 91.5212C210.239 92.7285 211.351 95.7981 210.144 98.3772 208.936 100.956 205.867 102.068 203.288 100.861L184.608 92.1162C182.029 90.9089 180.917 87.8393 182.125 85.2602 183.332 82.6811 186.402 81.5691 188.981 82.7765ZM226.34 100.266 245.019 109.01C247.598 110.218 248.71 113.287 247.503 115.866 246.295 118.446 243.226 119.558 240.647 118.35L221.967 109.606C219.388 108.398 218.276 105.329 219.484 102.75 220.691 100.17 223.76 99.0584 226.34 100.266ZM263.698 117.755 271.679 121.491C274.258 122.698 275.37 125.768 274.162 128.347 272.955 130.926 269.885 132.038 267.306 130.831L259.326 127.095C256.747 125.887 255.635 122.818 256.842 120.239 258.05 117.66 261.119 116.548 263.698 117.755Z" fill="url(#fill2)" fill-rule="nonzero" transform="matrix(1 0 0 -1 904 1559.16)"/><path d="M3.42552-3.85393 18.8412 9.84814C20.9697 11.74 21.1615 14.9991 19.2696 17.1276 17.3778 19.256 14.1187 19.4479 11.9902 17.556L-3.42552 3.85393C-5.55398 1.96207-5.74579-1.29705-3.85393-3.42552-1.96207-5.55398 1.29705-5.74579 3.42552-3.85393ZM34.2569 23.5502 49.6726 37.2523C51.8011 39.1441 51.9929 42.4033 50.101 44.5317 48.2092 46.6602 44.9501 46.852 42.8216 44.9601L27.4059 31.2581C25.2774 29.3662 25.0856 26.1071 26.9775 23.9786 28.8693 21.8502 32.1285 21.6583 34.2569 23.5502ZM65.0883 50.9543 80.504 64.6564C82.6325 66.5483 82.8243 69.8074 80.9324 71.9359 79.0406 74.0643 75.7815 74.2561 73.653 72.3643L58.2373 58.6622C56.1088 56.7703 55.917 53.5112 57.8089 51.3827 59.7008 49.2543 62.9599 49.0625 65.0883 50.9543ZM95.9197 78.3585 111.335 92.0605C113.464 93.9524 113.656 97.2115 111.764 99.34 109.872 101.468 106.613 101.66 104.484 99.7684L89.0687 86.0663C86.9403 84.1745 86.7485 80.9154 88.6403 78.7869 90.5322 76.6584 93.7913 76.4666 95.9197 78.3585ZM126.751 105.763 130.515 109.108C132.643 111 132.835 114.259 130.943 116.387 129.051 118.516 125.792 118.708 123.664 116.816L119.9 113.47C117.772 111.579 117.58 108.319 119.472 106.191 121.364 104.063 124.623 103.871 126.751 105.763Z" fill="url(#fill3)" fill-rule="nonzero" transform="matrix(1 0 0 -1 904 1559.96)"/><path d="M0 0C0.712734 0 1.42547 38.3496 1.42547 76.6992 1.42547 115.049 154.639 153.398 307.852 153.398" stroke="#ED7D31" stroke-width="20.625" stroke-linecap="butt" stroke-linejoin="miter" stroke-miterlimit="8" stroke-opacity="1" fill="none" fill-rule="evenodd" transform="matrix(1 0 0 -1 892.5 1567.9)"/><path d="M0 0C152.961 0 305.922 39.3122 305.922 78.624 305.922 117.936 306.887 157.248 307.852 157.248" stroke="#E22F8A" stroke-width="20.625" stroke-linecap="butt" stroke-linejoin="miter" stroke-miterlimit="8" stroke-opacity="1" fill="none" fill-rule="evenodd" transform="matrix(1 0 0 -1 892.5 1571.75)"/><text fill="#F49818" fill-opacity="1" font-family="CMU Sans Serif,CMU Sans Serif_MSFontService,sans-serif" font-style="normal" font-variant="normal" font-weight="700" font-stretch="normal" font-size="183" text-anchor="start" direction="ltr" writing-mode="lr-tb" unicode-bidi="normal" text-decoration="none" transform="matrix(1 0 0 1 1232.4 1553)">Detec<tspan fill="#E22F8A" fill-opacity="1" font-family="CMU Sans Serif,CMU Sans Serif_MSFontService,sans-serif" font-style="normal" font-variant="normal" font-weight="700" font-stretch="normal" font-size="183" text-anchor="start" direction="ltr" writing-mode="lr-tb" unicode-bidi="normal" text-decoration="none" x="504.167" y="0">tron</tspan></text><path d="M0 16C-4.45598e-15 7.16344 7.83503 0 17.5 0 27.165-4.07402e-15 35.0001 7.16344 35.0001 16 35.0001 24.8365 27.165 32 17.5 32 7.83503 32-1.33679e-14 24.8365 0 16Z" stroke="#E22F8A" stroke-width="4.58333" stroke-linecap="butt" stroke-linejoin="miter" stroke-miterlimit="8" stroke-opacity="1" fill="#F49818" fill-rule="evenodd" fill-opacity="1" transform="matrix(-1 0 0 1 909.5 1555.5)"/><path d="M0 16C-4.45598e-15 7.16344 7.83503 0 17.5 0 27.165-4.07402e-15 35.0001 7.16344 35.0001 16 35.0001 24.8365 27.165 32 17.5 32 7.83503 32-1.33679e-14 24.8365 0 16Z" stroke="#F49818" stroke-width="4.58333" stroke-linecap="butt" stroke-linejoin="miter" stroke-miterlimit="8" stroke-opacity="1" fill="#E22F8A" fill-rule="evenodd" fill-opacity="1" transform="matrix(-1 0 0 1 1217.5 1398.5)"/></g></svg>